<?xml version="1.0" encoding="UTF-8"?>
<svg id="Ebene_1" xmlns="http://www.w3.org/2000/svg" version="1.1" viewBox="0 0 4098 2304">
  <!-- Generator: Adobe Illustrator 29.7.1, SVG Export Plug-In . SVG Version: 2.1.1 Build 8)  -->
  <defs>
    <style>
      .st0 {
        fill: none;
      }

      .st1 {
        fill: #e09743;
      }

      .st2 {
        fill: #1a703a;
      }

      .st3 {
        fill: #a6162b;
      }
    </style>
  </defs>
  <path class="st0" d="M2257.4,1081c-.2-.8-.3-1.5-.5-2.2l-3.7-14.8-3.8,14.8c-.2.7-.3,1.4-.5,2.3l-4,20.2-10.2,47.6c-2,9-.5,17.4,4,23.1,3.5,4.3,8.4,6.6,14.2,6.6s11.3-2.4,14.9-6.8c4.5-5.6,6-14,4-22.8l-6.1-30-8.1-38Z"/>
  <path class="st0" d="M506.2,1350h67.9c10,0,18.4-8.4,18.4-18.4v-185.9c0-10-8.4-18.4-18.4-18.4h-67.9c-10,0-18.4,8.4-18.4,18.4v185.9c0,10,8.4,18.4,18.4,18.4Z"/>
  <path class="st0" d="M540.1,940h-33.9c-10,0-18.4,8.4-18.4,18.4v50.2c0,10,8.4,18.4,18.4,18.4h33.9c10,0,18.4-8.4,18.4-18.4v-50.2c0-10-8.4-18.4-18.4-18.4Z"/>
  <path class="st0" d="M968.5,1079.1c-.2-.8-.3-1.5-.5-2.2l-3.7-14.8-3.8,14.8c-.2.7-.3,1.4-.5,2.3l-4,20.2-10.2,47.6c-2,9-.5,17.4,4,23.1,3.5,4.3,8.4,6.6,14.2,6.6s11.3-2.4,14.9-6.8c4.5-5.6,6-14,4-22.8l-6.1-30-8.1-38Z"/>
  <path class="st0" d="M3170.8,939h-67.9c-11.2,0-21.3,10.2-21.3,21.3v373.2c0,11.2,10.2,21.3,21.3,21.3h67.9c11.2,0,21.3-10.2,21.3-21.3v-373.2c0-11.2-10.2-21.3-21.3-21.3Z"/>
  <path class="st0" d="M3537.8,936.4h68.9c9.4,0,17,7.6,17,17v378.9c0,9.4-7.6,17-17,17h-68.9c-9.4,0-17-7.6-17-17v-378.9c0-9.4,7.6-17,17-17Z"/>
  <path class="st3" d="M657.4,1045v-120.5c0-46-37.4-83.4-83.4-83.4h-208.7l1.9,17c.2,2.1,1.6,12.7,10.2,19.9l1.7,1.2c1.4.9,2.8,1.6,4.1,2.3,4.9,2.5,5.7,2.9,5.7,8.4v154c0,7.1-10.5,17.2-15.3,20.7l-17.4,12.6,17.4,12.6c4.8,3.5,15.3,13.6,15.3,20.7v289.7c0,5.5-.9,6-5.8,8.8l-.4.2c-1.3.8-2.8,1.6-4.2,2.7-9.8,6.8-11.1,18.5-11.2,19.8l-1.9,17.2h242.6c46,0,83.4-37.4,83.4-83.4v-253.8c0-26.4-12.6-51.2-33.9-66.8ZM558.6,1008.6c0,10-8.4,18.4-18.4,18.4h-33.9c-10,0-18.4-8.4-18.4-18.4v-50.2c0-10,8.4-18.4,18.4-18.4h33.9c10,0,18.4,8.4,18.4,18.4v50.2ZM487.8,1145.7c0-10,8.4-18.4,18.4-18.4h67.9c10,0,18.4,8.4,18.4,18.4v185.9c0,10-8.4,18.4-18.4,18.4h-67.9c-10,0-18.4-8.4-18.4-18.4v-185.9Z"/>
  <path class="st3" d="M1942.3,1340.6l-.7.9c-1.2,1.7-2.1,3.4-3,4.9-2.5,4.6-2.9,5.3-6.5,5.6h-104.1c-10,0-18.4-8.4-18.4-18.4v-221.2c0-7.1,10.5-17.2,15.3-20.7l17.5-12.6-17.4-12.6c-4.8-3.5-15.3-13.6-15.3-20.7v-154c0-5.4.8-5.8,5.7-8.4,1.3-.7,2.6-1.3,4-2.2l1.5-1.1.2-.2c8.4-7,10-17.6,10.2-19.7l1.9-17.2h-145.9l1.9,17.2c.2,2.1,1.8,12.7,10.2,19.7l1.5,1.1h.2c1.4,1,2.7,1.7,4,2.4,4.7,2.4,5.4,2.8,5.6,6.7v155.7c0,7.1-10.5,17.2-15.3,20.7l-17.5,12.6,17.4,12.6c4.8,3.5,15.3,13.6,15.3,20.7v289.7c0,5.5-1.1,6.1-5.7,8.8-1.5.9-3.1,1.8-4.7,3-9.3,6.4-11,17.6-11.2,19.8l-1.9,17.2h268.4c12.6,0,23.6-11,23.6-23.6v-98.7l-17.2,1.9c-2.1.2-12.7,1.8-19.7,10.2Z"/>
  <path class="st3" d="M2421.8,1417.8c-.7-.5-1.4-1-2.2-1.5-4.2-2.9-7.5-5.2-10.6-16.6l-56.1-285.7c0-9.4,9.4-21.3,12.7-24.7l10.2-10.7-13.4-6.4c-6.3-3-19.8-12-21.2-20.7l-31.9-161.8v-.3c-1.9-7.5.7-9.7,4.7-12.2l1.2-.8c7-5.9,8.3-14.8,8.5-16.5l1.3-11.8h-143.9l1.3,11.8c.2,1.7,1.5,10.7,8.5,16.5l1.2.9c4.1,2.5,6.6,4.7,4.7,12.4l-31.9,161.8v.3c-1.4,8.6-14.9,17.5-21.2,20.5l-13.4,6.3,10.2,10.7c3.3,3.4,12.6,15.3,12.7,24.7l-56.1,285.7c-3.1,11.4-6.4,13.7-10.6,16.6-.8.5-1.5,1-2.1,1.5-7.6,5.3-9,14.6-9.2,16.4l-1.3,11.8h130.3l-1.3-11.8c-.2-1.8-1.6-11.1-9.1-16.3-5.1-3.8-7.6-5.7-5.5-12.9l19.2-91,6.1-29.1c2.9-13.3,17.1-24.9,30.3-24.9h18.3c13.3,0,27.1,11.2,30.2,24.5l.6,4.3,6.9,33.3,18.2,85.5c.4,4.8-1.6,6.9-5.8,10.1-7.6,5.2-9,14.5-9.2,16.3l-1.3,11.8h130.3l-1.3-11.8c-.2-1.8-1.6-11.1-9.1-16.3ZM2267.7,1171.8c-3.6,4.5-8.7,6.8-14.9,6.8s-10.7-2.3-14.2-6.6c-4.6-5.7-6-14.1-4-23.1l10.2-47.6,4-20.2c.2-.9.4-1.6.5-2.3l3.8-14.8,3.7,14.8c.2.7.3,1.4.5,2.2l8.1,38,6.1,30c2,8.9.5,17.2-4,22.8Z"/>
  <path class="st3" d="M1133,1415.9c-.7-.5-1.4-1-2.2-1.5-4.2-2.9-7.5-5.2-10.6-16.6l-56.1-285.7c0-9.4,9.4-21.3,12.7-24.7l10.2-10.7-13.4-6.4c-6.3-3-19.8-12-21.2-20.7l-31.9-161.8v-.3c-1.9-7.5.7-9.7,4.7-12.2l1.2-.8c7-5.9,8.3-14.8,8.5-16.5l1.3-11.8h-143.9l1.3,11.8c.2,1.7,1.5,10.7,8.5,16.5l1.2.9c4.1,2.5,6.6,4.7,4.7,12.4l-31.9,161.8v.3c-1.4,8.6-14.9,17.5-21.2,20.5l-13.4,6.3,10.2,10.7c3.3,3.4,12.6,15.3,12.7,24.7l-56.1,285.7c-3.1,11.4-6.4,13.7-10.6,16.6-.8.5-1.5,1-2.1,1.5-7.6,5.3-9,14.6-9.2,16.4l-1.3,11.8h130.3l-1.3-11.8c-.2-1.8-1.6-11.1-9.1-16.3-5.1-3.8-7.6-5.7-5.5-12.9l19.2-91,6.1-29.1c2.9-13.3,17.1-24.9,30.3-24.9h18.3c13.3,0,27.1,11.2,30.2,24.5l.6,4.3,6.9,33.3,18.2,85.5c.4,4.8-1.6,6.9-5.8,10.1-7.6,5.2-9,14.5-9.2,16.3l-1.3,11.8h130.3l-1.3-11.8c-.2-1.8-1.6-11.1-9.1-16.3ZM978.8,1169.9c-3.6,4.5-8.7,6.8-14.9,6.8s-10.7-2.3-14.2-6.6c-4.6-5.7-6-14.1-4-23.1l10.2-47.6,4-20.2c.2-.9.4-1.6.5-2.3l3.8-14.8,3.7,14.8c.2.7.3,1.4.5,2.2l8.1,38,6.1,30c2,8.9.5,17.2-4,22.8Z"/>
  <path class="st3" d="M2866.4,1091.6l17.4-12.5-17.4-12.6c-4.8-3.5-15.3-13.6-15.3-20.7v-154c0-5.5.8-5.8,5.7-8.4,1.3-.7,2.6-1.3,4-2.2l1.5-1.1.2-.2c8.5-7,10-17.6,10.2-19.7l1.9-17.2h-145.9l1.9,17.2c.2,2.1,1.8,12.7,10.2,19.7l1.5,1.1h.2c1.4,1,2.8,1.7,4,2.4,4.9,2.5,5.7,2.9,5.7,8.4v260.7l-96.1-267.3c-8.2-22.7-33.5-41.2-57.8-42.1h-73.2s1.9,17.2,1.9,17.2c.2,2.1,1.8,12.7,10.2,19.7l1.5,1.1h.2c1.4,1,2.8,1.7,4,2.4,4.9,2.5,5.7,2.9,5.7,8.4v154c0,7.1-10.5,17.2-15.3,20.7l-17.5,12.6,17.4,12.6c4.8,3.5,15.3,13.6,15.3,20.7v289.7c0,5.5-1.1,6.1-5.8,8.8-1.5.9-3.1,1.8-4.6,2.9-9.3,6.4-11,17.6-11.2,19.8l-1.9,17.2h145.9l-1.9-17.2c-.2-2.2-1.9-13.3-11.1-19.7-1.6-1.2-3.2-2.1-4.8-3-4.6-2.7-5.7-3.3-5.7-8.8v-255l94,261.5c8.2,23.7,34.3,42.3,59.4,42.3h73.7l-1.9-17.2c-.2-2.2-1.9-13.3-11.1-19.7-1.6-1.2-3.2-2.1-4.8-3-4.6-2.7-5.7-3.3-5.7-8.8v-289.7c0-7.1,10.5-17.2,15.3-20.7Z"/>
  <path class="st3" d="M3283.3,1045.8v-119.4c0-43.3-35.2-78.5-78.5-78.5h-237.2l1.3,11.8c.2,1.7,1.5,10.7,8.5,16.5l1.2.8c1.2.7,2.4,1.4,3.7,2,5.2,2.7,8.3,4.3,8.3,12.7v154c0,9.1-11.6,20.5-17.3,24.6l-12,8.6,12,8.7c5.6,4.1,17.3,15.5,17.3,24.6v289.7c0,8.3-2.9,9.9-8.2,13-1.4.8-2.9,1.7-4.3,2.7-7.6,5.2-9,14.6-9.2,16.4l-1.3,11.8h237.2c43.3,0,78.5-35.2,78.5-78.5v-255.1c0-9.1,11.7-20.5,17.3-24.6l12-8.6-12-8.7c-5.6-4.1-17.3-15.5-17.3-24.6ZM3192.2,960.3v373.2c0,11.2-10.2,21.3-21.3,21.3h-67.9c-11.2,0-21.3-10.2-21.3-21.3v-373.2c0-11.2,10.2-21.3,21.3-21.3h67.9c11.2,0,21.3,10.2,21.3,21.3Z"/>
  <path class="st2" d="M1588.9,1298s-21.7-15.6-21.7-33.3v-154c0-17.6,11.5-20.4,17-23.7,4.1-3.4,4.7-9.5,4.7-9.5h-111.3s.7,6.1,4.8,9.5c5.4,3.4,17,6.1,17,23.7v120.4h-60.7c-1.7,0-3.5-.2-5.2-.6v-118.3c0-17.6,21.7-33.2,21.7-33.2,0,0-21.7-15.6-21.7-33.3v-154c0-17.6,11.5-20.4,17-23.7,4.1-3.4,4.7-9.5,4.7-9.5h-111.3s.7,6.1,4.8,9.5c5.4,3.4,17,6.1,17,23.7v154c0,17.7-21.7,33.3-21.7,33.3,0,0,21.7,15.6,21.7,33.2v8.4h-65.9v-120.4c0-17.6,11.5-20.4,17-23.7,4.1-3.4,4.7-9.5,4.7-9.5h-111.3s.7,6.1,4.8,9.5c5.4,3.4,17,6.1,17,23.7v154c0,17.7-21.7,33.3-21.7,33.3,0,0,.5.3,1.3,1h154.1v213.5c0,17.6-11.5,20.4-17,24.4-4.1,2.7-4.8,8.8-4.8,8.8h111.3s-.7-6.1-4.7-8.8c-5.4-4.1-17-6.8-17-24.4v-102.4c1.7-.4,3.4-.6,5.2-.6h149c.8-.6,1.3-1,1.3-1Z"/>
  <path class="st3" d="M3741.3,1061.4c-6.1-4.6-15.7-14.4-15.7-21.3v-117.5l-8.3-1.9c-1.5-.4-3.1-.7-4.6-1.1-1.6-.4-3.3-.8-4.8-1.2-6.7-1.7-13.6-3.6-20.5-5.6-23.8-6.8-48.9-15.2-71.1-22.5l-.7-.2c-34.9-11.6-67.9-22.5-99-29.6-8.3-1.9-15.8-3.4-23-4.6-3.8-.6-7.5-1.1-10.9-1.6l-16.4-2,4.9,15.8c0,.3,0,1-2.5,2.2-1.4.6-3.2,1.4-5.4,2.2-3.8,1.5-9.2,3.5-15.9,5.9l-4.6,1.6c-1.2.4-2.4.8-3.6,1.3l-2.8,1c-2.2.8-4.2,1.5-5.9,2l-4.9,1.7-1.7,4.9c-3.2,8.9-4.8,18.3-4.8,27.9v121.2c0,6.9-9.6,16.7-15.6,21.2l-17.4,12.5,17.6,12.8c4.8,3.5,15.5,13.8,15.5,21.1v259c0,46.5,37.9,84.4,84.4,84.4h137.8c46.5,0,84.4-37.9,84.4-84.4v-259c0-7.3,10.7-17.6,15.6-21.2l17.5-12.6-17.4-12.5h0ZM3623.7,953.4v378.9c0,9.2-7.8,17-17,17h-68.9c-9.2,0-17-7.8-17-17v-378.9c0-9.2,7.8-17,17-17h68.9c9.2,0,17,7.8,17,17Z"/>
  <path class="st1" d="M3529.6,770.8c4.7,1.5,9.4,3,14.1,4.5,12.6,3.9,25.2,7.6,38,11.1,12.7,3.5,25.5,6.7,38.3,9.8,6.4,1.5,12.8,3,19.3,4.4,3.2.7,6.4,1.4,9.7,2.1,3.1.6,6.1,1.5,9.2,1.8.8,0,8.7.8,8.7,1.1,7-97.6-38.6-114.1-55.6-116.9-3.8-.6-6.2-.6-6.2-.6-49.7-6.8-88.5,77.4-88.5,77.4,1.9,1.2,3.8,2.4,6,3.1,2.3.7,4.7,1.5,7,2.3Z"/>
  <path class="st1" d="M3732.4,883.1c-2.9-.4-5.9-.8-8.8-1.3-2.4-.4-4.7-.8-7.1-1.2-119.8-22.8-248.7-97.8-294.2-126.1-29.8-4.5-59.8-2.8-77.5,14.7-45,44.4,68.2,98.9,68.2,98.9,0,0,11-3.7,22.2-7.7,12.4-4.4,24.9-9.1,23-9.4-10.5-1.7-21.2-2.8-31.8-4.3-5.8-.8-11.3-2.1-16.3-5.1-.5-.3-1.1-.7-1.6-1.1-.4-.3-.8-.7-1.1-1.1-.2-.3-.4-.7-.3-1.1,0-.4.3-.7.6-1,.5-.4,1.1-.7,1.6-.9.9-.4,1.9-.6,2.9-.8,1.5-.3,2.9-.5,4.4-.6,2-.2,4-.4,6-.5,2.6-.1,5.3-.2,7.9-.2,3.3,0,6.6,0,9.9,0,4.1,0,8.1.2,12.2.3,9.3.4,19.1,1.4,29.2,3.1,7.5,1.2,15.2,2.8,23.1,4.6,52.9,12.1,113.4,35.9,170.9,52.4,18.7,5.4,37.1,10,54.9,13.2.9.1,1.7.3,2.6.4,45.1,7.4,68.8-7.5,81.2-23.9-26.3,2.6-53.9,2.6-82.1-1.2Z"/>
  <path class="st1" d="M3822.5,851.2c-14.1,0-28.3-1.2-42.4-2.2-15.5-1.2-31-2.3-46.5-3.7-7-.7-13.9-1.4-20.9-2.2-9.5-1.1-19-2.4-28.5-4-16-2.7-31.9-6.2-47.6-10.3-17.2-4.5-34.2-9.8-51-15.9-2.7-1-5.4-2-8.1-3.1-19.5-7.5-38.5-16-57.6-24.3-.3-.1-.6-.3-.9-.4-9.4-4.1-18.9-8.2-28.4-12-3.4-1.4-6.8-2.8-10.3-4.1-2.7-1-6.3-1.5-5.1-1.1,6.1,3.4,12.1,6.7,18.3,10.1,3,1.6,6.1,3.3,9.1,4.9,1.4.7,2.8,1.5,4.2,2.2,4,2.1,7.9,4.1,11.9,6.2.7.4,1.4.7,2.2,1.1,4.5,2.3,9,4.6,13.6,6.8.1,0,.3.1.4.2,0,0,.2,0,.3.1,3.2,1.6,6.4,3.1,9.6,4.7.7.4,1.5.7,2.2,1.1,3.1,1.5,6.1,2.9,9.2,4.3.9.4,1.9.9,2.8,1.3,2.1,1,4.3,2,6.4,2.9,1.4.6,2.7,1.2,4.1,1.8,2.6,1.2,5.3,2.3,7.9,3.5,1.5.7,3,1.3,4.6,2,1.7.7,3.5,1.5,5.2,2.2,1.6.7,3.1,1.3,4.7,2,2.7,1.1,5.4,2.2,8,3.3,1.2.5,2.5,1,3.7,1.5,2.7,1.1,5.3,2.1,8,3.2.5.2,1.1.4,1.6.6,3.3,1.3,6.5,2.5,9.8,3.7.4.2.8.3,1.3.5.6.2,1.1.4,1.7.6,1.6.6,3.3,1.2,4.9,1.8,27.2,9.9,55.1,18.6,83.6,24.1,2.5.5,5.1.9,7.6,1.3,31.2,5.2,62.6,5.9,94.1,2.6,2.5-.3,5-.6,7.6-.9,3.6-9.3,4.2-16.4,4.2-16.4-1.8.2-3.7.1-5.5.1Z"/>
  <g>
    <path d="M832.5,1546.8v68.6h-13.8v-44.6l-18.4,44.6h-10.4l-18.5-44.6v44.6h-13.8v-68.6h15.6l21.8,51,21.8-51h15.5Z"/>
    <path d="M909,1558v17.2h23.1v10.9h-23.1v18.2h26.1v11.2h-39.8v-68.7h39.8v11.2h-26.1Z"/>
    <path d="M1037.9,1615.5l-14.9-23.1-13.5,23.1h-15.5l21.6-34.6-21.9-34h15.8l14.9,23,13.4-23h15.5l-21.5,34.5,21.9,34.1h-15.8Z"/>
    <path d="M1127.2,1546.8v68.6h-13.8v-68.6h13.8Z"/>
    <path d="M1191.1,1562.9c3-5.3,7.2-9.5,12.5-12.5,5.3-3,11.2-4.5,17.7-4.5s14.4,2,20.2,5.9c5.8,3.9,9.8,9.4,12.1,16.3h-15.8c-1.6-3.3-3.8-5.7-6.6-7.4-2.9-1.6-6.1-2.5-9.9-2.5s-7.6.9-10.7,2.8c-3.1,1.9-5.5,4.5-7.3,7.9-1.7,3.4-2.6,7.4-2.6,12s.9,8.5,2.6,11.9c1.7,3.4,4.2,6.1,7.3,8,3.1,1.9,6.7,2.8,10.7,2.8s7-.8,9.9-2.5c2.9-1.7,5.1-4.1,6.6-7.4h15.8c-2.3,7-6.3,12.5-12,16.4-5.7,3.9-12.5,5.9-20.2,5.9s-12.5-1.5-17.7-4.5c-5.3-3-9.4-7.1-12.5-12.4-3-5.3-4.6-11.3-4.6-18.1s1.5-12.8,4.6-18.1Z"/>
    <path d="M1356.7,1602.4h-27.3l-4.5,13.1h-14.5l24.7-68.7h16l24.7,68.7h-14.6l-4.5-13.1ZM1353,1591.4l-9.9-28.7-9.9,28.7h19.9Z"/>
    <path d="M1492.9,1615.5h-13.8l-31.2-47.1v47.1h-13.8v-68.7h13.8l31.2,47.2v-47.2h13.8v68.7Z"/>
    <path d="M1663.6,1615.5l-15.1-26.7h-6.5v26.7h-13.8v-68.6h25.8c5.3,0,9.8.9,13.6,2.8,3.7,1.9,6.5,4.4,8.4,7.6s2.8,6.7,2.8,10.7-1.3,8.6-3.9,12.2c-2.6,3.6-6.5,6.1-11.7,7.5l16.4,27.8h-15.9ZM1642,1578.4h11.5c3.7,0,6.5-.9,8.4-2.7,1.8-1.8,2.8-4.3,2.8-7.5s-.9-5.6-2.8-7.3c-1.8-1.7-4.6-2.6-8.4-2.6h-11.5v20.2Z"/>
    <path d="M1754.2,1558v17.2h23.1v10.9h-23.1v18.2h26.1v11.2h-39.8v-68.7h39.8v11.2h-26.1Z"/>
    <path d="M1852.7,1613.7c-3.8-1.6-6.9-4-9.1-7.1-2.2-3.1-3.4-6.7-3.4-10.9h14.8c.2,2.8,1.2,5,3,6.7,1.8,1.6,4.3,2.5,7.4,2.5s5.7-.8,7.6-2.3c1.8-1.5,2.8-3.6,2.8-6s-.6-3.7-1.9-5-2.8-2.3-4.7-3.1c-1.9-.8-4.4-1.6-7.7-2.5-4.5-1.3-8.1-2.6-10.9-3.9-2.8-1.3-5.2-3.2-7.2-5.8-2-2.6-3-6-3-10.4s1-7.6,3-10.6c2-3,4.9-5.3,8.6-6.9,3.7-1.6,7.9-2.4,12.6-2.4,7.1,0,12.8,1.7,17.3,5.2,4.4,3.4,6.9,8.2,7.3,14.4h-15.1c-.1-2.4-1.1-4.3-3-5.9-1.9-1.5-4.3-2.3-7.4-2.3s-4.8.7-6.4,2.1c-1.6,1.4-2.4,3.4-2.4,6s.6,3.4,1.8,4.6,2.7,2.2,4.5,2.9c1.8.8,4.3,1.6,7.6,2.6,4.5,1.3,8.1,2.6,10.9,3.9,2.8,1.3,5.2,3.3,7.3,5.9,2,2.6,3,6.1,3,10.3s-1,7.1-2.9,10.2c-1.9,3.1-4.7,5.7-8.4,7.5s-8,2.8-13.1,2.8-9.1-.8-12.9-2.5Z"/>
    <path d="M1997.7,1546.8v11.1h-18.3v57.5h-13.8v-57.5h-18.3v-11.1h50.4Z"/>
    <path d="M2099,1602.4h-27.3l-4.5,13.1h-14.5l24.7-68.7h16l24.7,68.7h-14.6l-4.5-13.1ZM2095.3,1591.4l-9.9-28.7-9.9,28.7h19.9Z"/>
    <path d="M2190.1,1546.8v42.5c0,4.7,1.2,8.2,3.6,10.7,2.4,2.5,5.8,3.7,10.2,3.7s7.9-1.2,10.3-3.7c2.4-2.5,3.6-6,3.6-10.7v-42.5h13.9v42.4c0,5.8-1.3,10.8-3.8,14.8-2.5,4-5.9,7.1-10.1,9.1-4.2,2-8.9,3-14.1,3s-9.8-1-13.9-3c-4.2-2-7.5-5.1-9.9-9.1-2.4-4-3.6-9-3.6-14.8v-42.4h13.8Z"/>
    <path d="M2329.6,1615.5l-15.1-26.7h-6.5v26.7h-13.8v-68.6h25.8c5.3,0,9.8.9,13.6,2.8,3.7,1.9,6.5,4.4,8.4,7.6s2.8,6.7,2.8,10.7-1.3,8.6-3.9,12.2c-2.6,3.6-6.5,6.1-11.7,7.5l16.4,27.8h-15.9ZM2308,1578.4h11.5c3.7,0,6.5-.9,8.4-2.7,1.8-1.8,2.8-4.3,2.8-7.5s-.9-5.6-2.8-7.3c-1.8-1.7-4.6-2.6-8.4-2.6h-11.5v20.2Z"/>
    <path d="M2448.5,1602.4h-27.3l-4.5,13.1h-14.5l24.7-68.7h16l24.7,68.7h-14.6l-4.5-13.1ZM2444.8,1591.4l-9.9-28.7-9.9,28.7h19.9Z"/>
    <path d="M2584.7,1615.5h-13.8l-31.2-47.1v47.1h-13.8v-68.7h13.8l31.2,47.2v-47.2h13.8v68.7Z"/>
    <path d="M2694.2,1546.8v11.1h-18.3v57.5h-13.8v-57.5h-18.3v-11.1h50.4Z"/>
    <path d="M2878.8,1615.5l-7.5-7.4c-6.4,5.7-14.1,8.6-23.3,8.6s-9.5-.9-13.3-2.6c-3.8-1.7-6.8-4.2-8.9-7.4s-3.1-6.9-3.1-11.1,1.3-8.6,3.8-12.2,6.3-6.5,11.3-8.8c-1.8-2.2-3-4.2-3.8-6.2-.8-2-1.2-4.1-1.2-6.4s.8-6,2.5-8.5c1.6-2.5,4-4.5,7-5.9,3-1.4,6.6-2.2,10.7-2.2s7.7.8,10.6,2.4c3,1.6,5.1,3.7,6.6,6.3,1.4,2.6,2.1,5.5,1.9,8.8h-13.4c0-2.2-.5-3.8-1.6-5-1.1-1.1-2.6-1.7-4.5-1.7s-3.4.5-4.6,1.6c-1.2,1.1-1.8,2.5-1.8,4.2s.5,3.3,1.5,4.9c1,1.6,2.6,3.6,4.8,5.9l17.3,17.1c.1-.1.2-.3.3-.4,0-.1.1-.3.2-.4l5.6-9.3h14.4l-6.9,12.1c-1.3,2.6-2.7,5-4.2,7.3l16.6,16.4h-16.9ZM2862.6,1599.6l-16.9-16.7c-6.4,2.8-9.5,6.8-9.5,12s1.1,5.4,3.3,7.4c2.2,2,5.2,3,8.9,3,5.4,0,10.1-1.9,14.3-5.7Z"/>
    <path d="M3072.7,1586.1c2.5,3.1,3.7,6.8,3.7,10.8s-.9,6.9-2.7,9.7c-1.8,2.8-4.4,5-7.8,6.5s-7.4,2.4-12.1,2.4h-29.6v-68.6h28.3c4.7,0,8.7.8,12,2.3,3.4,1.5,5.9,3.6,7.7,6.3,1.7,2.7,2.6,5.7,2.6,9.1s-1.1,7.3-3.2,10c-2.1,2.7-5,4.6-8.5,5.7,3.9.7,7,2.7,9.5,5.8ZM3038,1575.2h12.6c3.3,0,5.8-.7,7.6-2.2,1.8-1.5,2.7-3.6,2.7-6.3s-.9-4.9-2.7-6.4c-1.8-1.5-4.3-2.3-7.6-2.3h-12.6v17.2ZM3059.7,1601.9c1.9-1.6,2.8-3.8,2.8-6.7s-1-5.3-3-6.9-4.6-2.5-8-2.5h-13.6v18.5h13.9c3.3,0,6-.8,7.8-2.4Z"/>
    <path d="M3178.7,1602.4h-27.3l-4.5,13.1h-14.5l24.7-68.7h16l24.7,68.7h-14.6l-4.5-13.1ZM3175,1591.4l-9.9-28.7-9.9,28.7h19.9Z"/>
    <path d="M3291.6,1615.5l-15.1-26.7h-6.5v26.7h-13.8v-68.6h25.8c5.3,0,9.8.9,13.6,2.8,3.7,1.9,6.5,4.4,8.4,7.6s2.8,6.7,2.8,10.7-1.3,8.6-3.9,12.2c-2.6,3.6-6.5,6.1-11.7,7.5l16.4,27.8h-15.9ZM3270,1578.4h11.5c3.7,0,6.5-.9,8.4-2.7,1.8-1.8,2.8-4.3,2.8-7.5s-.9-5.6-2.8-7.3c-1.8-1.7-4.6-2.6-8.4-2.6h-11.5v20.2Z"/>
  </g>
</svg>