<?xml version="1.0" encoding="UTF-8"?>
<svg id="Ebene_1" xmlns="http://www.w3.org/2000/svg" version="1.1" viewBox="0 0 4098 2304">
  <!-- Generator: Adobe Illustrator 29.7.1, SVG Export Plug-In . SVG Version: 2.1.1 Build 8)  -->
  <defs>
    <style>
      .st0 {
        fill: none;
      }

      .st1 {
        fill: #e09743;
      }

      .st2 {
        fill: #1a703a;
      }

      .st3 {
        fill: #fff;
      }

      .st4 {
        fill: #a6162b;
      }
    </style>
  </defs>
  <path class="st0" d="M2234.7,1005.1c-.2-.9-.4-1.7-.6-2.5l-4.3-16.9-4.3,16.9c-.2.8-.4,1.6-.6,2.6l-4.6,23-11.6,54.3c-2.3,10.3-.6,19.9,4.6,26.4,4,5,9.6,7.6,16.2,7.6s12.9-2.7,17-7.8c5.2-6.4,6.8-15.9,4.6-26l-7-34.2-9.3-43.4Z"/>
  <path class="st0" d="M235.2,1312.2h77.5c11.4,0,21-9.6,21-21v-212.3c0-11.4-9.6-21-21-21h-77.5c-11.4,0-21,9.6-21,21v212.3c0,11.4,9.6,21,21,21Z"/>
  <path class="st0" d="M274,844h-38.7c-11.4,0-21,9.6-21,21v57.3c0,11.4,9.6,21,21,21h38.7c11.4,0,21-9.6,21-21v-57.3c0-11.4-9.6-21-21-21Z"/>
  <path class="st0" d="M763.1,1002.8c-.2-.9-.4-1.7-.6-2.5l-4.3-16.9-4.3,16.9c-.2.8-.4,1.6-.6,2.6l-4.6,23-11.6,54.3c-2.3,10.3-.6,19.9,4.6,26.4,4,5,9.6,7.6,16.2,7.6s12.9-2.7,17-7.8c5.2-6.4,6.8-15.9,4.6-26l-7-34.2-9.3-43.4Z"/>
  <path class="st0" d="M3277.7,842.9h-77.5c-12.8,0-24.4,11.6-24.4,24.3v426.1c0,12.7,11.6,24.3,24.4,24.3h77.5c12.7,0,24.3-11.6,24.3-24.3v-426.1c0-12.7-11.6-24.3-24.3-24.3Z"/>
  <path class="st0" d="M3696.7,839.9h78.6c10.7,0,19.4,8.7,19.4,19.4v432.6c0,10.7-8.7,19.4-19.4,19.4h-78.6c-10.7,0-19.4-8.7-19.4-19.4v-432.6c0-10.7,8.7-19.4,19.4-19.4Z"/>
  <path class="st4" d="M407.9,963.9v-137.6c0-52.5-42.7-95.2-95.2-95.2H74.4l2.2,19.4c.2,2.3,1.8,14.5,11.7,22.7l1.9,1.4c1.6,1,3.2,1.8,4.6,2.6,5.6,2.9,6.5,3.3,6.5,9.6v175.9c0,8.1-12,19.6-17.4,23.6l-19.9,14.4,19.9,14.3c5.5,4,17.5,15.5,17.5,23.6v330.8c0,6.2-1,6.8-6.6,10.1l-.5.3c-1.5.9-3.2,1.9-4.8,3.1-11.2,7.7-12.7,21.2-12.8,22.6l-2.2,19.7h277c52.5,0,95.2-42.7,95.2-95.2v-289.7c0-30.2-14.4-58.5-38.7-76.3ZM295,922.4c0,11.4-9.6,21-21,21h-38.7c-11.4,0-21-9.6-21-21v-57.3c0-11.4,9.6-21,21-21h38.7c11.4,0,21,9.6,21,21v57.3ZM214.2,1078.9c0-11.4,9.6-21,21-21h77.5c11.4,0,21,9.6,21,21v212.3c0,11.4-9.6,21-21,21h-77.5c-11.4,0-21-9.6-21-21v-212.3Z"/>
  <path class="st4" d="M1875,1301.4l-.8,1c-1.4,1.9-2.4,3.9-3.4,5.6-2.8,5.3-3.3,6.1-7.5,6.3h-118.9c-11.4,0-21-9.6-21-21v-252.6c0-8.1,12-19.6,17.4-23.6l20-14.4-19.9-14.3c-5.5-4-17.5-15.5-17.5-23.6v-175.9c0-6.2.9-6.7,6.5-9.6,1.5-.8,3-1.5,4.6-2.5l1.7-1.2.2-.2c9.6-8,11.4-20.1,11.7-22.5l2.2-19.7h-166.6l2.2,19.7c.3,2.3,2.1,14.5,11.7,22.5l1.7,1.2.3.2c1.6,1,3.1,1.8,4.6,2.6,5.3,2.8,6.2,3.2,6.4,7.6v177.8c0,8.1-12,19.6-17.4,23.6l-19.9,14.4,19.9,14.3c5.5,4,17.5,15.5,17.5,23.7v330.8c0,6.2-1.3,7-6.5,10-1.7,1-3.6,2.1-5.3,3.4-10.6,7.3-12.5,20.1-12.8,22.6l-2.2,19.7h306.4c14.4,0,27-12.6,27-27v-112.8l-19.6,2.2c-2.3.3-14.5,2-22.5,11.7Z"/>
  <path class="st4" d="M2422.4,1389.6c-.8-.6-1.6-1.2-2.5-1.7-4.8-3.3-8.5-6-12.1-19l-64-326.2c0-10.8,10.7-24.3,14.5-28.2l11.7-12.2-15.2-7.3c-7.2-3.4-22.6-13.7-24.2-23.6l-36.5-184.7v-.4c-2.1-8.6.8-11.1,5.4-14l1.3-1c8-6.7,9.5-16.9,9.7-18.9l1.5-13.5h-164.3l1.5,13.5c.2,2,1.7,12.2,9.7,18.8l1.3,1c4.6,2.9,7.5,5.4,5.4,14.1l-36.5,184.8v.4c-1.6,9.8-17,20-24.2,23.5l-15.2,7.2,11.6,12.2c3.8,3.9,14.4,17.5,14.5,28.3l-64,326.2c-3.6,13-7.3,15.6-12.1,19-.9.6-1.7,1.2-2.4,1.7-8.7,6-10.3,16.6-10.5,18.7l-1.5,13.5h148.8l-1.5-13.5c-.2-2.1-1.8-12.7-10.4-18.6-5.8-4.3-8.7-6.5-6.3-14.7l21.9-103.9,6.9-33.2c3.4-15.1,19.5-28.4,34.6-28.4h20.9c15.1,0,30.9,12.8,34.5,28l.7,4.9,7.9,38,20.8,97.7c.5,5.5-1.8,7.9-6.6,11.5-8.7,6-10.3,16.6-10.5,18.7l-1.5,13.5h148.8l-1.5-13.5c-.2-2.1-1.8-12.6-10.4-18.6ZM2246.4,1108.7c-4.1,5.1-10,7.8-17,7.8s-12.2-2.6-16.2-7.6c-5.2-6.5-6.9-16.1-4.6-26.4l11.6-54.3,4.6-23c.2-1,.4-1.9.6-2.6l4.3-16.9,4.3,16.9c.2.8.4,1.6.6,2.5l9.3,43.4,7,34.2c2.3,10.1.6,19.6-4.6,26Z"/>
  <path class="st4" d="M950.9,1387.4c-.8-.6-1.6-1.2-2.5-1.7-4.8-3.3-8.5-6-12.1-19l-64-326.2c0-10.8,10.7-24.3,14.5-28.2l11.7-12.2-15.2-7.3c-7.2-3.4-22.6-13.7-24.2-23.6l-36.5-184.7v-.4c-2.1-8.6.8-11.1,5.4-14l1.3-1c8-6.7,9.5-16.9,9.7-18.9l1.5-13.5h-164.3l1.5,13.5c.2,2,1.7,12.2,9.7,18.8l1.3,1c4.6,2.9,7.5,5.4,5.4,14.1l-36.5,184.8v.4c-1.6,9.8-17,20-24.2,23.5l-15.2,7.2,11.6,12.2c3.8,3.9,14.4,17.5,14.5,28.3l-64,326.2c-3.6,13-7.3,15.6-12.1,19-.9.6-1.7,1.2-2.4,1.7-8.7,6-10.3,16.6-10.5,18.7l-1.5,13.5h148.8l-1.5-13.5c-.2-2.1-1.8-12.7-10.4-18.6-5.8-4.3-8.7-6.5-6.3-14.7l21.9-103.9,6.9-33.2c3.4-15.1,19.5-28.4,34.6-28.4h20.9c15.1,0,30.9,12.8,34.5,28l.7,4.9,7.9,38,20.8,97.7c.5,5.5-1.8,7.9-6.6,11.5-8.7,6-10.3,16.6-10.5,18.7l-1.5,13.5h148.8l-1.5-13.5c-.2-2.1-1.8-12.6-10.4-18.6ZM774.8,1106.5c-4.1,5.1-10,7.8-17,7.8s-12.2-2.6-16.2-7.6c-5.2-6.5-6.9-16.1-4.6-26.4l11.6-54.3,4.6-23c.2-1,.4-1.9.6-2.6l4.3-16.9,4.3,16.9c.2.8.4,1.6.6,2.5l9.3,43.4,7,34.2c2.3,10.1.6,19.6-4.6,26Z"/>
  <path class="st4" d="M2930.1,1017.2l19.9-14.3-19.9-14.3c-5.5-4-17.5-15.5-17.5-23.6v-175.9c0-6.2.9-6.7,6.5-9.6,1.5-.8,3-1.5,4.5-2.5l1.7-1.2.2-.2c9.6-8,11.4-20.1,11.7-22.5l2.2-19.7h-166.6l2.2,19.6c.3,2.3,2,14.5,11.7,22.5l1.7,1.2.3.2c1.6,1,3.2,1.8,4.6,2.5,5.6,2.9,6.5,3.3,6.5,9.6v297.7l-109.7-305.2c-9.3-25.9-38.2-47-66-48.1h-83.6s2.2,19.6,2.2,19.6c.3,2.3,2,14.5,11.7,22.5l1.7,1.2.3.2c1.6,1,3.2,1.8,4.6,2.5,5.6,2.9,6.5,3.3,6.5,9.6v175.9c0,8.1-12,19.6-17.4,23.6l-19.9,14.3,19.9,14.3c5.5,4,17.5,15.5,17.5,23.7v330.8c0,6.2-1.3,7-6.6,10.1-1.7,1-3.5,2.1-5.3,3.3-10.6,7.3-12.5,20.1-12.8,22.6l-2.2,19.7h166.6l-2.2-19.6c-.3-2.5-2.2-15.2-12.7-22.5-1.8-1.3-3.7-2.4-5.4-3.4-5.3-3.1-6.5-3.8-6.5-10v-291.2l107.3,298.5c9.4,27.1,39.2,48.3,67.8,48.3h84.1l-2.2-19.7c-.3-2.5-2.2-15.2-12.7-22.5-1.8-1.4-3.6-2.4-5.4-3.4-5.3-3.1-6.5-3.8-6.5-10v-330.8c0-8.1,12-19.6,17.5-23.6Z"/>
  <path class="st4" d="M3406,964.9v-136.4c0-49.4-40.2-89.6-89.6-89.6h-270.8l1.5,13.5c.2,2,1.7,12.2,9.7,18.9l1.3,1c1.4.9,2.8,1.6,4.2,2.3,5.9,3,9.5,4.9,9.5,14.5v175.9c0,10.4-13.3,23.4-19.7,28.1l-13.7,9.9,13.7,9.9c6.4,4.7,19.7,17.7,19.7,28.1v330.8c0,9.4-3.3,11.3-9.3,14.8-1.6,1-3.3,1.9-4.9,3.1-8.7,6-10.3,16.6-10.5,18.7l-1.5,13.5h270.8c49.4,0,89.6-40.2,89.6-89.6v-291.3c0-10.4,13.3-23.4,19.7-28.1l13.7-9.9-13.7-9.9c-6.4-4.7-19.8-17.7-19.8-28.1ZM3302,867.3v426.1c0,12.7-11.6,24.3-24.3,24.3h-77.5c-12.8,0-24.4-11.6-24.4-24.3v-426.1c0-12.7,11.6-24.3,24.4-24.3h77.5c12.7,0,24.3,11.6,24.3,24.3Z"/>
  <path class="st2" d="M1471.5,1252.9s-24.8-17.8-24.8-38v-175.9c0-20.1,13.2-23.2,19.4-27.1,4.6-3.9,5.4-10.8,5.4-10.8h-127.1s.8,7,5.4,10.8c6.2,3.9,19.4,7,19.4,27.1v137.5h-69.3c-2,0-4-.2-5.9-.7v-135.1c0-20.1,24.8-38,24.8-38,0,0-24.8-17.8-24.8-38v-175.9c0-20.1,13.2-23.2,19.4-27.1,4.6-3.9,5.4-10.8,5.4-10.8h-127.1s.8,7,5.4,10.8c6.2,3.9,19.4,7,19.4,27.1v175.9c0,20.2-24.8,38-24.8,38,0,0,24.8,17.8,24.8,38v9.6h-75.2v-137.5c0-20.1,13.2-23.2,19.4-27.1,4.6-3.9,5.4-10.8,5.4-10.8h-127.1s.8,7,5.4,10.8c6.2,3.9,19.4,7,19.4,27.1v175.9c0,20.2-24.8,38-24.8,38,0,0,.6.4,1.5,1.1h176v243.7c0,20.1-13.2,23.2-19.4,27.9-4.6,3.1-5.4,10.1-5.4,10.1h127.1s-.8-7-5.4-10.1c-6.2-4.6-19.4-7.7-19.4-27.9v-116.9c1.9-.4,3.9-.7,5.9-.7h170.1c.9-.7,1.5-1.1,1.5-1.1Z"/>
  <path class="st4" d="M3929,982.7c-6.9-5.2-17.9-16.4-17.9-24.3v-134.1l-9.4-2.2c-1.7-.4-3.5-.8-5.3-1.3-1.8-.5-3.7-.9-5.5-1.4-7.6-2-15.5-4.1-23.4-6.4-27.1-7.8-55.8-17.3-81.2-25.7l-.8-.3c-39.9-13.2-77.6-25.7-113-33.8-9.5-2.2-18.1-3.9-26.3-5.2-4.3-.7-8.5-1.3-12.4-1.8l-18.7-2.2,5.6,18.1c0,.3.1,1.1-2.8,2.5-1.6.7-3.6,1.6-6.2,2.5-4.4,1.7-10.5,4-18.2,6.8l-5.3,1.9c-1.4.5-2.8,1-4.1,1.4l-3.2,1.1c-2.5.9-4.8,1.7-6.7,2.3l-5.6,1.9-2,5.6c-3.6,10.2-5.4,20.9-5.4,31.9v138.4c0,7.9-11,19.1-17.9,24.2l-19.9,14.2,20.1,14.6c5.5,4,17.7,15.7,17.7,24.1v295.7c0,53.1,43.2,96.4,96.4,96.4h157.3c53.1,0,96.4-43.2,96.4-96.4v-295.7c0-8.4,12.2-20.1,17.8-24.2l20-14.4-19.8-14.3h0ZM3794.7,859.3v432.6c0,10.5-8.9,19.4-19.4,19.4h-78.6c-10.5,0-19.4-8.9-19.4-19.4v-432.6c0-10.5,8.9-19.4,19.4-19.4h78.6c10.5,0,19.4,8.9,19.4,19.4Z"/>
  <path class="st1" d="M3687.3,650.9c5.3,1.7,10.7,3.4,16.1,5.1,14.4,4.4,28.8,8.7,43.3,12.6,14.5,4,29.1,7.7,43.7,11.2,7.3,1.7,14.7,3.4,22,5,3.7.8,7.4,1.6,11,2.4,3.5.7,7,1.7,10.6,2,.9,0,10,1,9.9,1.3,8-111.4-44.1-130.3-63.4-133.4-4.3-.7-7-.6-7-.6-56.7-7.8-101,88.4-101,88.4,2.2,1.4,4.4,2.8,6.9,3.5,2.7.8,5.3,1.8,8,2.6Z"/>
  <path class="st1" d="M3918.8,779.1c-3.3-.5-6.7-1-10-1.5-2.7-.4-5.4-.9-8.1-1.4-136.7-26-283.9-111.7-335.9-144-34.1-5.1-68.3-3.2-88.5,16.7-51.4,50.7,77.8,112.9,77.8,112.9,0,0,12.6-4.3,25.3-8.8,14.1-5,28.4-10.4,26.3-10.8-12-2-24.2-3.2-36.3-4.9-6.6-.9-12.8-2.4-18.7-5.8-.6-.4-1.2-.8-1.8-1.2-.4-.4-.9-.8-1.2-1.2-.2-.4-.4-.8-.4-1.2,0-.5.3-.9.6-1.2.5-.5,1.2-.8,1.9-1.1,1.1-.4,2.2-.7,3.3-.9,1.7-.3,3.3-.6,5-.7,2.3-.2,4.6-.4,6.9-.5,3-.1,6-.2,9-.3,3.8,0,7.6,0,11.3,0,4.6,0,9.3.2,13.9.4,10.6.4,21.8,1.6,33.4,3.5,8.6,1.4,17.4,3.2,26.4,5.2,60.4,13.9,129.5,41,195.1,59.8,21.4,6.1,42.4,11.4,62.6,15,1,.2,2,.3,3,.5,51.5,8.4,78.5-8.5,92.7-27.3-30,2.9-61.6,3-93.7-1.4Z"/>
  <path class="st1" d="M4021.7,742.7c-16.1,0-32.3-1.3-48.4-2.5-17.7-1.3-35.4-2.6-53-4.3-8-.7-15.9-1.6-23.8-2.5-10.9-1.3-21.7-2.8-32.5-4.6-18.3-3.1-36.4-7-54.3-11.7-19.7-5.1-39.1-11.2-58.2-18.1-3.1-1.1-6.2-2.3-9.2-3.5-22.2-8.5-44-18.2-65.8-27.8-.4-.2-.7-.3-1.1-.5-10.8-4.7-21.5-9.3-32.4-13.7-3.9-1.6-7.8-3.2-11.7-4.7-3.1-1.2-7.2-1.7-5.8-1.2,6.9,3.9,13.9,7.7,20.8,11.5,3.5,1.9,6.9,3.7,10.4,5.6,1.6.8,3.2,1.7,4.8,2.5,4.5,2.4,9,4.7,13.6,7,.8.4,1.6.8,2.5,1.3,5.2,2.6,10.3,5.2,15.5,7.8.2,0,.3.2.5.2.1,0,.2.1.3.2,3.7,1.8,7.3,3.6,11,5.3.8.4,1.7.8,2.5,1.2,3.5,1.7,7,3.3,10.5,5,1.1.5,2.1,1,3.2,1.5,2.4,1.1,4.9,2.3,7.4,3.4,1.5.7,3.1,1.4,4.6,2.1,3,1.3,6,2.7,9,4,1.7.8,3.5,1.5,5.2,2.3,2,.9,4,1.7,5.9,2.5,1.8.8,3.5,1.5,5.3,2.3,3.1,1.3,6.1,2.5,9.2,3.8,1.4.6,2.8,1.1,4.2,1.7,3,1.2,6.1,2.4,9.1,3.6.6.2,1.3.5,1.9.7,3.7,1.4,7.5,2.9,11.2,4.3.5.2,1,.4,1.4.5.6.2,1.3.5,1.9.7,1.9.7,3.7,1.4,5.6,2,31.1,11.3,63,21.3,95.4,27.5,2.9.6,5.8,1.1,8.7,1.5,35.6,5.9,71.5,6.8,107.5,2.9,2.9-.3,5.8-.7,8.6-1,4.1-10.6,4.8-18.8,4.8-18.8-2.1.2-4.2.1-6.3.1Z"/>
  <g>
    <path class="st3" d="M607.8,1536.9v78.4h-15.7v-51l-21,51h-11.9l-21.1-51v51h-15.7v-78.4h17.9l24.9,58.3,24.9-58.3h17.7Z"/>
    <path class="st3" d="M695.2,1549.6v19.7h26.4v12.5h-26.4v20.8h29.8v12.8h-45.5v-78.5h45.5v12.8h-29.8Z"/>
    <path class="st3" d="M842.3,1615.3l-17-26.4-15.4,26.4h-17.7l24.7-39.5-25-38.9h18.1l17,26.3,15.3-26.3h17.7l-24.6,39.4,25,39h-18.1Z"/>
    <path class="st3" d="M944.2,1536.9v78.4h-15.7v-78.4h15.7Z"/>
    <path class="st3" d="M1017.3,1555.3c3.5-6.1,8.2-10.9,14.3-14.3,6-3.4,12.8-5.1,20.3-5.1s16.4,2.2,23,6.7c6.6,4.5,11.2,10.7,13.8,18.6h-18.1c-1.8-3.7-4.3-6.6-7.6-8.4-3.3-1.9-7-2.8-11.3-2.8s-8.6,1.1-12.2,3.2c-3.6,2.1-6.3,5.1-8.3,9-2,3.9-3,8.5-3,13.7s1,9.7,3,13.6c2,3.9,4.8,7,8.3,9.1,3.6,2.1,7.6,3.2,12.2,3.2s8-1,11.3-2.9c3.3-1.9,5.8-4.7,7.6-8.5h18.1c-2.6,8-7.2,14.2-13.8,18.7-6.6,4.5-14.2,6.7-23.1,6.7s-14.2-1.7-20.3-5.1c-6-3.4-10.8-8.1-14.3-14.2-3.5-6.1-5.2-13-5.2-20.7s1.7-14.6,5.2-20.7Z"/>
    <path class="st3" d="M1206.3,1600.4h-31.2l-5.2,14.9h-16.5l28.2-78.5h18.3l28.2,78.5h-16.6l-5.2-14.9ZM1202.1,1587.8l-11.3-32.8-11.3,32.8h22.7Z"/>
    <path class="st3" d="M1361.8,1615.3h-15.7l-35.6-53.8v53.8h-15.7v-78.5h15.7l35.6,53.9v-53.9h15.7v78.5Z"/>
    <path class="st3" d="M1556.8,1615.3l-17.3-30.5h-7.4v30.5h-15.7v-78.4h29.4c6.1,0,11.2,1.1,15.5,3.2,4.3,2.1,7.5,5,9.6,8.6,2.1,3.6,3.2,7.7,3.2,12.2s-1.5,9.8-4.5,14c-3,4.2-7.4,7-13.4,8.6l18.8,31.8h-18.2ZM1532.1,1573h13.1c4.3,0,7.4-1,9.5-3.1,2.1-2.1,3.1-4.9,3.1-8.6s-1-6.4-3.1-8.4c-2.1-2-5.3-3-9.5-3h-13.1v23Z"/>
    <path class="st3" d="M1660.2,1549.6v19.7h26.4v12.5h-26.4v20.8h29.8v12.8h-45.5v-78.5h45.5v12.8h-29.8Z"/>
    <path class="st3" d="M1772.6,1613.3c-4.4-1.9-7.8-4.6-10.4-8.1-2.5-3.5-3.9-7.7-3.9-12.5h16.8c.2,3.2,1.4,5.8,3.4,7.6,2.1,1.9,4.9,2.8,8.5,2.8s6.5-.9,8.6-2.6c2.1-1.8,3.1-4.1,3.1-6.9s-.7-4.2-2.1-5.7c-1.4-1.5-3.2-2.7-5.3-3.5-2.1-.9-5.1-1.8-8.8-2.9-5.1-1.5-9.2-3-12.4-4.4-3.2-1.5-5.9-3.7-8.2-6.6-2.3-3-3.4-6.9-3.4-11.8s1.2-8.7,3.5-12.1c2.3-3.4,5.6-6.1,9.8-7.9,4.2-1.8,9-2.8,14.4-2.8,8.1,0,14.7,2,19.7,5.9,5.1,3.9,7.8,9.4,8.4,16.4h-17.3c-.2-2.7-1.3-4.9-3.4-6.7-2.1-1.8-5-2.6-8.5-2.6s-5.5.8-7.4,2.4c-1.8,1.6-2.8,3.9-2.8,6.8s.7,3.8,2.1,5.2,3.1,2.5,5.2,3.4c2.1.9,5,1.9,8.7,3,5.1,1.5,9.2,3,12.5,4.5,3.2,1.5,6,3.7,8.3,6.7,2.3,3,3.5,6.9,3.5,11.8s-1.1,8.1-3.3,11.7c-2.2,3.6-5.4,6.5-9.5,8.6s-9.2,3.2-14.9,3.2-10.4-.9-14.8-2.8Z"/>
    <path class="st3" d="M1938.2,1536.9v12.7h-20.9v65.7h-15.7v-65.7h-20.9v-12.7h57.5Z"/>
    <path class="st3" d="M2053.9,1600.4h-31.2l-5.2,14.9h-16.5l28.2-78.5h18.3l28.2,78.5h-16.6l-5.2-14.9ZM2049.6,1587.8l-11.3-32.8-11.3,32.8h22.7Z"/>
    <path class="st3" d="M2157.8,1536.9v48.5c0,5.3,1.4,9.4,4.2,12.2,2.8,2.8,6.7,4.2,11.7,4.2s9-1.4,11.8-4.2c2.8-2.8,4.2-6.9,4.2-12.2v-48.5h15.8v48.4c0,6.7-1.4,12.3-4.3,16.9-2.9,4.6-6.7,8.1-11.6,10.4-4.8,2.3-10.2,3.5-16.1,3.5s-11.1-1.2-15.9-3.5c-4.8-2.3-8.5-5.8-11.3-10.4-2.8-4.6-4.2-10.2-4.2-16.9v-48.4h15.7Z"/>
    <path class="st3" d="M2317.2,1615.3l-17.3-30.5h-7.4v30.5h-15.7v-78.4h29.4c6.1,0,11.2,1.1,15.5,3.2,4.3,2.1,7.5,5,9.6,8.6,2.1,3.6,3.2,7.7,3.2,12.2s-1.5,9.8-4.5,14c-3,4.2-7.4,7-13.4,8.6l18.8,31.8h-18.2ZM2292.5,1573h13.1c4.3,0,7.4-1,9.5-3.1,2.1-2.1,3.1-4.9,3.1-8.6s-1-6.4-3.1-8.4c-2.1-2-5.3-3-9.5-3h-13.1v23Z"/>
    <path class="st3" d="M2452.9,1600.4h-31.2l-5.2,14.9h-16.5l28.2-78.5h18.3l28.2,78.5h-16.6l-5.2-14.9ZM2448.7,1587.8l-11.3-32.8-11.3,32.8h22.7Z"/>
    <path class="st3" d="M2608.4,1615.3h-15.7l-35.6-53.8v53.8h-15.7v-78.5h15.7l35.6,53.9v-53.9h15.7v78.5Z"/>
    <path class="st3" d="M2733.4,1536.9v12.7h-20.9v65.7h-15.7v-65.7h-20.9v-12.7h57.5Z"/>
    <path class="st3" d="M2944.2,1615.3l-8.5-8.4c-7.3,6.5-16.1,9.8-26.6,9.8s-10.8-1-15.2-3c-4.4-2-7.8-4.8-10.2-8.4-2.4-3.6-3.6-7.8-3.6-12.6s1.5-9.8,4.4-13.9c2.9-4.1,7.2-7.4,12.9-10-2-2.5-3.5-4.8-4.4-7.1-.9-2.3-1.3-4.7-1.3-7.4s.9-6.8,2.8-9.7c1.9-2.9,4.5-5.1,8-6.8,3.5-1.6,7.5-2.5,12.2-2.5s8.8.9,12.1,2.7c3.4,1.8,5.9,4.2,7.5,7.2,1.6,3,2.4,6.3,2.1,10h-15.3c0-2.5-.5-4.4-1.8-5.7-1.3-1.3-3-2-5.2-2s-3.8.6-5.2,1.9c-1.4,1.2-2.1,2.8-2.1,4.8s.6,3.7,1.7,5.6c1.1,1.8,3,4.1,5.5,6.8l19.8,19.5c.1-.1.3-.3.3-.4,0-.1.1-.3.2-.4l6.4-10.7h16.4l-7.9,13.8c-1.5,2.9-3.1,5.7-4.8,8.3l19,18.8h-19.3ZM2925.8,1597.1l-19.3-19.1c-7.3,3.2-10.9,7.8-10.9,13.7s1.3,6.2,3.8,8.5c2.5,2.3,5.9,3.4,10.1,3.4,6.1,0,11.6-2.2,16.3-6.5Z"/>
    <path class="st3" d="M3165.6,1581.7c2.8,3.6,4.3,7.7,4.3,12.4s-1,7.9-3.1,11.1c-2.1,3.2-5,5.7-8.9,7.5-3.9,1.8-8.5,2.7-13.8,2.7h-33.8v-78.4h32.3c5.3,0,9.9.9,13.8,2.6,3.9,1.7,6.8,4.1,8.8,7.2,2,3.1,3,6.6,3,10.4s-1.2,8.4-3.7,11.5c-2.4,3.1-5.7,5.2-9.7,6.5,4.4.8,8,3,10.9,6.6ZM3126,1569.3h14.4c3.7,0,6.6-.8,8.6-2.5,2-1.7,3-4.1,3-7.2s-1-5.6-3-7.3c-2-1.7-4.9-2.6-8.6-2.6h-14.4v19.7ZM3150.7,1599.8c2.1-1.8,3.2-4.3,3.2-7.6s-1.1-6-3.4-7.9c-2.2-1.9-5.3-2.9-9.1-2.9h-15.5v21.1h15.8c3.8,0,6.8-.9,8.9-2.7Z"/>
    <path class="st3" d="M3286.7,1600.4h-31.2l-5.2,14.9h-16.5l28.2-78.5h18.3l28.2,78.5h-16.6l-5.2-14.9ZM3282.4,1587.8l-11.3-32.8-11.3,32.8h22.7Z"/>
    <path class="st3" d="M3415.6,1615.3l-17.3-30.5h-7.4v30.5h-15.7v-78.4h29.4c6.1,0,11.2,1.1,15.5,3.2,4.3,2.1,7.5,5,9.6,8.6,2.1,3.6,3.2,7.7,3.2,12.2s-1.5,9.8-4.5,14c-3,4.2-7.4,7-13.4,8.6l18.8,31.8h-18.2ZM3390.9,1573h13.1c4.3,0,7.4-1,9.5-3.1,2.1-2.1,3.1-4.9,3.1-8.6s-1-6.4-3.1-8.4c-2.1-2-5.3-3-9.5-3h-13.1v23Z"/>
  </g>
</svg>